<?xml version="1.0" encoding="UTF-8"?>
<!DOCTYPE svg PUBLIC "-//W3C//DTD SVG 1.1//EN" "http://www.w3.org/Graphics/SVG/1.1/DTD/svg11.dtd">
<svg xmlns="http://www.w3.org/2000/svg" version="1.1" width="5000px" height="3000px" style="shape-rendering:geometricPrecision; text-rendering:geometricPrecision; image-rendering:optimizeQuality; fill-rule:evenodd; clip-rule:evenodd" xmlns:xlink="http://www.w3.org/1999/xlink">
<g><path style="opacity:1" fill="#fefefe" d="M -0.5,-0.5 C 1666.17,-0.5 3332.83,-0.5 4999.5,-0.5C 4999.5,999.5 4999.5,1999.5 4999.5,2999.5C 3332.83,2999.5 1666.17,2999.5 -0.5,2999.5C -0.5,1999.5 -0.5,999.5 -0.5,-0.5 Z"/></g>
<g><path style="opacity:1" fill="#353233" d="M 3223.5,856.5 C 3218.54,858.123 3213.87,857.29 3209.5,854C 3173.99,847.812 3138.65,840.812 3103.5,833C 3094.15,831.608 3084.82,830.108 3075.5,828.5C 2987,813.105 2897.67,802.272 2807.5,796C 2669.03,785.835 2530.36,784.835 2391.5,793C 2274.2,800.746 2157.53,815.079 2041.5,836C 2027.19,838.722 2013.02,841.889 1999,845.5C 1996.56,845.643 1994.06,845.31 1991.5,844.5C 2096.03,822.209 2201.7,806.375 2308.5,797C 2569.54,773.754 2829.21,784.088 3087.5,828C 3133.29,835.953 3178.62,845.453 3223.5,856.5 Z"/></g>
<g><path style="opacity:1" fill="#1a1a1a" d="M 3223.5,856.5 C 3224.17,856.5 3224.83,856.5 3225.5,856.5C 3228.33,858.631 3231.66,860.131 3235.5,861C 3263.66,868.04 3291.66,875.04 3319.5,882C 3329.88,886.431 3340.55,888.931 3351.5,889.5C 3351.83,889.5 3352.17,889.5 3352.5,889.5C 3352.41,890.496 3352.75,891.329 3353.5,892C 3379.7,900.254 3405.86,908.421 3432,916.5C 3432.67,915.748 3433.5,915.414 3434.5,915.5C 3437.97,916.101 3441.3,917.101 3444.5,918.5C 3446.14,920.258 3448.14,921.758 3450.5,923C 3486.24,935.26 3520.57,948.093 3553.5,961.5C 3556.77,962.854 3560.1,964.02 3563.5,965C 3563.17,965.333 3562.83,965.667 3562.5,966C 3566.97,967.779 3571.47,969.612 3576,971.5C 3576.41,971.043 3576.91,970.709 3577.5,970.5C 3579.17,971.849 3580.84,973.015 3582.5,974C 3584.92,975.048 3587.25,975.214 3589.5,974.5C 3592.59,975.213 3595.59,976.213 3598.5,977.5C 3598.54,978.583 3598.87,979.583 3599.5,980.5C 3615.19,987.768 3630.36,994.768 3645,1001.5C 3646.69,1002.2 3648.19,1002.2 3649.5,1001.5C 3678.41,1014.29 3706.41,1028.62 3733.5,1044.5C 3733.41,1045.5 3733.75,1046.33 3734.5,1047C 3742.66,1051.25 3750.66,1055.75 3758.5,1060.5C 3759.18,1060.14 3759.85,1059.8 3760.5,1059.5C 3781.03,1071.05 3801.03,1083.38 3820.5,1096.5C 3823.02,1101.29 3827.02,1104.46 3832.5,1106C 3836.17,1109 3839.83,1112 3843.5,1115C 3845.86,1116.54 3848.19,1117.04 3850.5,1116.5C 3850.48,1118.14 3851.15,1119.48 3852.5,1120.5C 3856.85,1123.01 3860.85,1126.01 3864.5,1129.5C 3869.1,1131.94 3873.27,1134.94 3877,1138.5C 3878.26,1139.66 3879.43,1139.66 3880.5,1138.5C 3882.41,1139.08 3884.08,1140.08 3885.5,1141.5C 3886.88,1144.39 3888.88,1146.89 3891.5,1149C 3897,1153.17 3902.5,1157.33 3908,1161.5C 3908.38,1160.94 3908.88,1160.61 3909.5,1160.5C 3913.48,1163.15 3917.15,1166.15 3920.5,1169.5C 3920.39,1170.12 3920.06,1170.62 3919.5,1171C 3922.23,1172.73 3924.23,1175.06 3925.5,1178C 3926.76,1179.11 3927.93,1179.28 3929,1178.5C 3949.33,1196.49 3969.33,1214.83 3989,1233.5C 3989.38,1232.94 3989.88,1232.61 3990.5,1232.5C 3990.39,1234.9 3991.39,1236.74 3993.5,1238C 3991.11,1238.87 3989.61,1238.03 3989,1235.5C 3988.62,1236.06 3988.12,1236.39 3987.5,1236.5C 3987.17,1236.5 3986.83,1236.5 3986.5,1236.5C 3987.71,1235.12 3987.37,1233.95 3985.5,1233C 3983.09,1231.8 3981.09,1230.13 3979.5,1228C 3978.55,1227.38 3977.72,1227.55 3977,1228.5C 3973.99,1223.15 3969.82,1219.98 3964.5,1219C 3945.64,1206.41 3926.64,1194.07 3907.5,1182C 3905.87,1181.51 3904.2,1181.34 3902.5,1181.5C 3895.33,1177.75 3888.33,1173.75 3881.5,1169.5C 3879.56,1167.22 3877.56,1164.88 3875.5,1162.5C 3868.37,1160.35 3861.87,1157.02 3856,1152.5C 3854.44,1153.21 3853.28,1152.54 3852.5,1150.5C 3844,1147.09 3836.33,1143.09 3829.5,1138.5C 3825.05,1137.11 3821.05,1134.94 3817.5,1132C 3812.67,1130.12 3808,1127.95 3803.5,1125.5C 3802.58,1126.13 3801.58,1126.46 3800.5,1126.5C 3799.77,1125.29 3799.43,1123.96 3799.5,1122.5C 3789.22,1118.24 3778.89,1114.07 3768.5,1110C 3764.33,1107.08 3760,1104.42 3755.5,1102C 3751.37,1101.6 3747.71,1100.1 3744.5,1097.5C 3743.91,1097.71 3743.41,1098.04 3743,1098.5C 3739,1094.89 3734.5,1093.23 3729.5,1093.5C 3728.05,1092.18 3728.38,1091.34 3730.5,1091C 3721.24,1087.83 3712.24,1084.16 3703.5,1080C 3701.93,1079.24 3700.6,1079.4 3699.5,1080.5C 3699.17,1080.5 3698.83,1080.5 3698.5,1080.5C 3698.5,1079.5 3698.5,1078.5 3698.5,1077.5C 3696.44,1077.31 3694.44,1076.81 3692.5,1076C 3692.83,1075.67 3693.17,1075.33 3693.5,1075C 3686.79,1072.64 3680.13,1070.31 3673.5,1068C 3668.06,1065.45 3662.06,1063.29 3655.5,1061.5C 3654.89,1061.62 3654.56,1061.96 3654.5,1062.5C 3634.95,1055.87 3615.62,1048.87 3596.5,1041.5C 3596.61,1040.88 3596.94,1040.38 3597.5,1040C 3587.42,1036.31 3577.26,1032.81 3567,1029.5C 3566.33,1030.25 3565.5,1030.59 3564.5,1030.5C 3559.03,1029.23 3553.7,1027.57 3548.5,1025.5C 3548.61,1024.88 3548.94,1024.38 3549.5,1024C 3539.98,1019.99 3530.15,1016.83 3520,1014.5C 3519.1,1014.74 3518.26,1015.08 3517.5,1015.5C 3516.83,1015.5 3516.17,1015.5 3515.5,1015.5C 3512.52,1012.34 3508.86,1010.17 3504.5,1009C 3495.23,1007.23 3486.23,1004.73 3477.5,1001.5C 3476.45,1001.68 3475.45,1002.01 3474.5,1002.5C 3470.83,999.372 3466.83,998.372 3462.5,999.5C 3462.17,999.5 3461.83,999.5 3461.5,999.5C 3461.59,998.504 3461.25,997.671 3460.5,997C 3445.02,992.213 3429.35,988.213 3413.5,985C 3397.33,980.107 3380.99,975.941 3364.5,972.5C 3362.87,973.046 3361.2,973.38 3359.5,973.5C 3359.17,973.5 3358.83,973.5 3358.5,973.5C 3358.61,972.883 3358.94,972.383 3359.5,972C 3357.13,971.265 3354.8,970.432 3352.5,969.5C 3351.32,970.855 3350.32,970.688 3349.5,969C 3331.07,964.936 3312.57,961.103 3294,957.5C 3292.56,958.148 3291.06,958.481 3289.5,958.5C 3288.83,958.5 3288.17,958.5 3287.5,958.5C 3288.26,957.732 3289.26,957.232 3290.5,957C 3234.83,945.939 3178.66,936.773 3122,929.5C 3120.08,929.581 3118.24,929.914 3116.5,930.5C 3110.77,930.353 3105.1,929.686 3099.5,928.5C 3097.73,926.603 3095.4,925.436 3092.5,925C 3068.15,922.632 3043.82,920.132 3019.5,917.5C 3017.77,917.59 3016.11,917.923 3014.5,918.5C 3006.89,917.09 2999.22,915.923 2991.5,915C 2941.32,911.801 2891.15,908.635 2841,905.5C 2786.32,905.395 2731.48,905.562 2676.5,906C 2568.81,908.472 2461.81,917.472 2355.5,933C 2356.06,933.383 2356.39,933.883 2356.5,934.5C 2350.56,933.99 2344.56,934.157 2338.5,935C 2277.55,944.601 2217.22,955.768 2157.5,968.5C 2154.24,969.641 2150.91,970.474 2147.5,971C 2148.42,971.278 2149.08,971.778 2149.5,972.5C 2149.17,972.5 2148.83,972.5 2148.5,972.5C 2147.07,972.579 2145.74,972.246 2144.5,971.5C 2125.55,976.238 2106.88,980.905 2088.5,985.5C 2049.89,995.234 2011.22,1006.07 1972.5,1018C 1962.21,1021.59 1951.55,1024.92 1940.5,1028C 1939.67,1028.91 1938.67,1029.58 1937.5,1030C 1938.06,1030.38 1938.39,1030.88 1938.5,1031.5C 1938.17,1031.5 1937.83,1031.5 1937.5,1031.5C 1936.58,1031.02 1935.58,1030.69 1934.5,1030.5C 1925.13,1033.61 1915.8,1036.77 1906.5,1040C 1905.4,1040.77 1905.4,1041.6 1906.5,1042.5C 1906.17,1042.5 1905.83,1042.5 1905.5,1042.5C 1902.95,1041.99 1900.28,1042.33 1897.5,1043.5C 1896.3,1043.15 1896.3,1042.65 1897.5,1042C 1895.83,1041.33 1894.17,1041.33 1892.5,1042C 1893.5,1042.33 1894.5,1042.67 1895.5,1043C 1889.49,1046.51 1883.15,1049.18 1876.5,1051C 1875.24,1051.42 1874.58,1052.25 1874.5,1053.5C 1873.5,1053.59 1872.67,1053.25 1872,1052.5C 1854.14,1059.34 1836.31,1066.17 1818.5,1073C 1817.18,1073.82 1816.51,1074.98 1816.5,1076.5C 1811.62,1078.77 1806.62,1080.77 1801.5,1082.5C 1797.14,1080.62 1793.48,1081.45 1790.5,1085C 1784.36,1087.79 1778.03,1090.13 1771.5,1092C 1771.83,1092.33 1772.17,1092.67 1772.5,1093C 1749.61,1102.45 1727.28,1112.95 1705.5,1124.5C 1702.18,1124.64 1699.18,1126.14 1696.5,1129C 1697.06,1129.38 1697.39,1129.88 1697.5,1130.5C 1690.58,1134.13 1683.58,1137.46 1676.5,1140.5C 1675.75,1139.43 1674.75,1139.26 1673.5,1140C 1663.7,1145.07 1654.04,1150.4 1644.5,1156C 1643.75,1156.67 1643.41,1157.5 1643.5,1158.5C 1634.67,1163.75 1625.67,1168.75 1616.5,1173.5C 1614.52,1174 1612.52,1174.5 1610.5,1175C 1603.34,1180.07 1595.67,1184.4 1587.5,1188C 1584.71,1189.54 1582.71,1191.7 1581.5,1194.5C 1579.8,1194.97 1578.3,1194.97 1577,1194.5C 1572.92,1198.46 1568.09,1201.3 1562.5,1203C 1562.83,1203.33 1563.17,1203.67 1563.5,1204C 1560.12,1205.74 1556.79,1207.57 1553.5,1209.5C 1552.75,1210.74 1552.42,1212.07 1552.5,1213.5C 1547.1,1217.56 1541.44,1221.23 1535.5,1224.5C 1535.57,1224.06 1535.4,1223.73 1535,1223.5C 1531.69,1224.9 1528.86,1226.9 1526.5,1229.5C 1525.91,1229.29 1525.41,1228.96 1525,1228.5C 1521.74,1231.22 1518.57,1234.05 1515.5,1237C 1507.89,1241.61 1500.56,1246.61 1493.5,1252C 1492.4,1252.77 1492.4,1253.6 1493.5,1254.5C 1490.48,1254.84 1487.82,1256.01 1485.5,1258C 1481.6,1261.11 1477.94,1264.44 1474.5,1268C 1471.48,1268.15 1469.81,1269.65 1469.5,1272.5C 1466.93,1273.67 1464.27,1274.84 1461.5,1276C 1453.09,1284.42 1444.09,1292.08 1434.5,1299C 1433.83,1299.99 1433.83,1301.15 1434.5,1302.5C 1433.85,1302.2 1433.18,1301.86 1432.5,1301.5C 1424.46,1308.97 1416.63,1315.97 1409,1322.5C 1408.53,1323.58 1408.7,1324.58 1409.5,1325.5C 1408.17,1326.5 1406.83,1327.5 1405.5,1328.5C 1404.85,1328.2 1404.18,1327.86 1403.5,1327.5C 1396.96,1334.54 1390.29,1341.37 1383.5,1348C 1384.06,1348.38 1384.39,1348.88 1384.5,1349.5C 1383.02,1349.24 1381.69,1349.57 1380.5,1350.5C 1376.47,1354.61 1372.3,1358.61 1368,1362.5C 1367.38,1363.45 1367.55,1364.28 1368.5,1365C 1367.55,1365.48 1366.55,1365.65 1365.5,1365.5C 1354.25,1377.88 1342.92,1391.55 1331.5,1406.5C 1329.44,1409.27 1326.94,1411.6 1324,1413.5C 1321.67,1417.98 1318.5,1421.81 1314.5,1425C 1315.45,1425.72 1315.62,1426.55 1315,1427.5C 1307.18,1437.47 1300.01,1447.8 1293.5,1458.5C 1286.83,1467.94 1280.83,1477.28 1275.5,1486.5C 1275.62,1487.11 1275.96,1487.44 1276.5,1487.5C 1273,1495.16 1269,1502.49 1264.5,1509.5C 1263.07,1510.08 1261.74,1510.92 1260.5,1512C 1260.83,1512.33 1261.17,1512.67 1261.5,1513C 1256.48,1519.4 1252.98,1526.56 1251,1534.5C 1248.57,1536.91 1247.74,1539.58 1248.5,1542.5C 1248.5,1542.83 1248.5,1543.17 1248.5,1543.5C 1247.5,1543.5 1246.5,1543.5 1245.5,1543.5C 1240.29,1556.17 1235.29,1569.34 1230.5,1583C 1230.74,1583.9 1231.08,1584.74 1231.5,1585.5C 1231.5,1585.83 1231.5,1586.17 1231.5,1586.5C 1230.88,1586.39 1230.38,1586.06 1230,1585.5C 1229.33,1586.83 1228.67,1588.17 1228,1589.5C 1227.67,1588.83 1227.33,1588.17 1227,1587.5C 1226.67,1591.17 1226.33,1594.83 1226,1598.5C 1219.59,1614.97 1215.76,1631.97 1214.5,1649.5C 1214.5,1649.83 1214.5,1650.17 1214.5,1650.5C 1213.78,1650.08 1213.28,1649.42 1213,1648.5C 1197.83,1727.14 1202.83,1804.48 1228,1880.5C 1228.28,1879.58 1228.78,1878.92 1229.5,1878.5C 1233.56,1890.95 1237.89,1903.28 1242.5,1915.5C 1241.88,1915.92 1241.54,1916.58 1241.5,1917.5C 1247.37,1932.23 1254.03,1946.57 1261.5,1960.5C 1262.32,1961.39 1263.32,1961.72 1264.5,1961.5C 1277.84,1985.53 1292.17,2008.86 1307.5,2031.5C 1306.5,2032.79 1306.67,2034.12 1308,2035.5C 1315.51,2045.21 1323.01,2054.87 1330.5,2064.5C 1331.42,2065.13 1332.42,2065.46 1333.5,2065.5C 1344.14,2077.81 1354.8,2090.14 1365.5,2102.5C 1367.08,2107.58 1370.25,2111.25 1375,2113.5C 1375.67,2114.83 1376.33,2116.17 1377,2117.5C 1384.69,2124.56 1391.69,2132.22 1398,2140.5C 1398.33,2140.17 1398.67,2139.83 1399,2139.5C 1401.41,2141.43 1403.91,2143.09 1406.5,2144.5C 1408.37,2147.57 1410.54,2150.57 1413,2153.5C 1414.58,2155.06 1416.42,2156.22 1418.5,2157C 1419.52,2159.9 1421.36,2162.06 1424,2163.5C 1424.67,2164.5 1424.67,2165.5 1424,2166.5C 1422.17,2166.81 1421.01,2168.31 1420.5,2171C 1417.76,2170.98 1415.09,2170.31 1412.5,2169C 1403.38,2162.78 1393.72,2157.61 1383.5,2153.5C 1381.22,2153.02 1379.22,2152.02 1377.5,2150.5C 1377.65,2149.45 1377.48,2148.45 1377,2147.5C 1368.82,2143.33 1361.16,2138.33 1354,2132.5C 1346.43,2128.75 1339.26,2124.41 1332.5,2119.5C 1330.59,2118.52 1328.59,2117.86 1326.5,2117.5C 1326.17,2117.5 1325.83,2117.5 1325.5,2117.5C 1325.8,2116.85 1326.14,2116.18 1326.5,2115.5C 1318.61,2110.42 1310.94,2104.92 1303.5,2099C 1302.25,2098.26 1301.25,2098.43 1300.5,2099.5C 1300.17,2099.5 1299.83,2099.5 1299.5,2099.5C 1298.8,2097.28 1297.46,2095.45 1295.5,2094C 1291.28,2091.72 1287.62,2088.72 1284.5,2085C 1279.63,2082.03 1274.97,2078.87 1270.5,2075.5C 1269.26,2074.75 1267.93,2074.42 1266.5,2074.5C 1259.32,2069.41 1252.32,2064.08 1245.5,2058.5C 1246.35,2055.65 1245.01,2054.15 1241.5,2054C 1241.17,2053 1240.83,2052 1240.5,2051C 1227.83,2040.33 1215.17,2029.67 1202.5,2019C 1201.55,2018.52 1200.55,2018.35 1199.5,2018.5C 1187.2,2007.87 1175.53,1996.53 1164.5,1984.5C 1164.61,1983.88 1164.94,1983.38 1165.5,1983C 1162.67,1978.83 1159.17,1975.33 1155,1972.5C 1152.69,1968.21 1150.03,1964.21 1147,1960.5C 1146.67,1960.83 1146.33,1961.17 1146,1961.5C 1142.45,1958.81 1139.95,1955.47 1138.5,1951.5C 1136.39,1951.32 1134.73,1950.32 1133.5,1948.5C 1127.46,1939.11 1120.46,1930.44 1112.5,1922.5C 1107.19,1915.17 1101.85,1907.84 1096.5,1900.5C 1095.36,1897.94 1094.53,1895.27 1094,1892.5C 1093.03,1894.88 1092.36,1894.54 1092,1891.5C 1091.67,1891.83 1091.33,1892.17 1091,1892.5C 1085.95,1885.46 1080.95,1878.46 1076,1871.5C 1073.29,1866.96 1070.79,1862.29 1068.5,1857.5C 1067.27,1855.72 1065.61,1854.72 1063.5,1854.5C 1063.5,1854.17 1063.5,1853.83 1063.5,1853.5C 1063.8,1852.85 1064.14,1852.18 1064.5,1851.5C 1061.56,1849 1060.4,1846 1061,1842.5C 1060.33,1843.83 1059.67,1843.83 1059,1842.5C 1054.55,1834.34 1050.39,1826 1046.5,1817.5C 1045.64,1816.57 1044.64,1815.91 1043.5,1815.5C 1043.8,1814.85 1044.14,1814.18 1044.5,1813.5C 1040.03,1804.73 1036.2,1795.73 1033,1786.5C 1032.12,1784.36 1030.62,1783.03 1028.5,1782.5C 1027.11,1779.99 1026.11,1777.33 1025.5,1774.5C 1025.54,1773.42 1025.87,1772.42 1026.5,1771.5C 994.488,1686.84 988.321,1600.17 1008,1511.5C 1008.5,1508.18 1008.67,1504.85 1008.5,1501.5C 1009.03,1497.05 1010.03,1492.72 1011.5,1488.5C 1013.41,1488.43 1014.58,1487.43 1015,1485.5C 1019,1473.5 1023,1461.5 1027,1449.5C 1027.5,1447.53 1027.66,1445.53 1027.5,1443.5C 1027.5,1443.17 1027.5,1442.83 1027.5,1442.5C 1028.22,1442.92 1028.72,1443.58 1029,1444.5C 1033.45,1435.03 1037.45,1425.37 1041,1415.5C 1044.82,1410.85 1046.98,1405.51 1047.5,1399.5C 1047.5,1399.17 1047.5,1398.83 1047.5,1398.5C 1048.12,1398.61 1048.62,1398.94 1049,1399.5C 1056.5,1387.32 1063.34,1374.82 1069.5,1362C 1073.69,1357.14 1077.52,1351.97 1081,1346.5C 1082.14,1343.9 1082.97,1341.24 1083.5,1338.5C 1086.47,1333.85 1089.47,1329.18 1092.5,1324.5C 1093.15,1324.8 1093.82,1325.14 1094.5,1325.5C 1096.1,1321.77 1098.6,1318.77 1102,1316.5C 1105.47,1310.97 1109.47,1305.63 1114,1300.5C 1114.47,1299.42 1114.3,1298.42 1113.5,1297.5C 1117.08,1291.58 1121.42,1286.25 1126.5,1281.5C 1129.72,1280.12 1132.56,1278.12 1135,1275.5C 1136.53,1273.77 1137.53,1271.77 1138,1269.5C 1139.84,1270.83 1140.34,1270.67 1139.5,1269C 1144.01,1264.69 1148.17,1260.19 1152,1255.5C 1152.49,1254.21 1152.66,1252.87 1152.5,1251.5C 1163.19,1240.14 1174.19,1229.14 1185.5,1218.5C 1186.92,1218.29 1188.26,1217.79 1189.5,1217C 1197.21,1208.88 1205.54,1201.55 1214.5,1195C 1213.83,1194.01 1213.83,1192.85 1214.5,1191.5C 1219.96,1189.39 1224.63,1186.06 1228.5,1181.5C 1230.84,1180.16 1233.17,1178.82 1235.5,1177.5C 1241.02,1171.48 1247.02,1165.98 1253.5,1161C 1259.5,1156.67 1265.5,1152.33 1271.5,1148C 1272.34,1146.99 1272.67,1145.82 1272.5,1144.5C 1299.58,1123.12 1327.91,1103.45 1357.5,1085.5C 1359.56,1085.31 1361.56,1084.81 1363.5,1084C 1368.82,1081 1374.16,1078 1379.5,1075C 1382.29,1073.46 1384.29,1071.3 1385.5,1068.5C 1387.45,1069.41 1389.45,1069.24 1391.5,1068C 1395.79,1064.51 1400.46,1061.51 1405.5,1059C 1407.19,1057.69 1408.53,1056.19 1409.5,1054.5C 1412.24,1052.44 1415.24,1050.77 1418.5,1049.5C 1420.03,1050.2 1421.7,1050.04 1423.5,1049C 1430.85,1044.43 1438.52,1040.43 1446.5,1037C 1448.44,1036.09 1449.44,1034.59 1449.5,1032.5C 1455.67,1028.92 1462,1025.58 1468.5,1022.5C 1471.74,1023.05 1474.9,1022.39 1478,1020.5C 1479.67,1019.49 1481.01,1018.16 1482,1016.5C 1482.41,1016.96 1482.91,1017.29 1483.5,1017.5C 1487,1015.39 1490.67,1013.55 1494.5,1012C 1495.31,1010.89 1495.97,1009.72 1496.5,1008.5C 1501.98,1005.6 1507.64,1002.93 1513.5,1000.5C 1514.58,1000.54 1515.58,1000.87 1516.5,1001.5C 1525.17,997.5 1533.83,993.5 1542.5,989.5C 1542.49,990.441 1542.99,991.108 1544,991.5C 1545.65,990.258 1547.48,989.424 1549.5,989C 1548.5,988.667 1547.5,988.333 1546.5,988C 1552.56,986.815 1557.9,984.149 1562.5,980C 1561.94,979.617 1561.61,979.117 1561.5,978.5C 1564.31,976.93 1567.31,975.597 1570.5,974.5C 1572.75,975.214 1575.08,975.048 1577.5,974C 1585.27,970.135 1593.27,966.969 1601.5,964.5C 1603.22,965.661 1604.89,965.495 1606.5,964C 1604.7,963.683 1604.37,963.016 1605.5,962C 1617.48,958.15 1628.98,953.316 1640,947.5C 1646.2,946.768 1652.2,944.768 1658,941.5C 1658.85,942.424 1659.85,942.424 1661,941.5C 1661.95,941.905 1662.61,942.572 1663,943.5C 1664.1,942.033 1665.6,941.199 1667.5,941C 1666.83,940.667 1666.17,940.333 1665.5,940C 1668.64,937.29 1672.31,935.623 1676.5,935C 1677.6,934.23 1677.6,933.397 1676.5,932.5C 1709.31,919.898 1742.64,908.898 1776.5,899.5C 1777.69,899.678 1778.86,900.011 1780,900.5C 1792.34,896.292 1804.84,892.792 1817.5,890C 1824.24,887.864 1830.91,885.531 1837.5,883C 1836.94,882.617 1836.61,882.117 1836.5,881.5C 1846.79,878.678 1857.12,876.011 1867.5,873.5C 1869.03,874.431 1870.7,875.098 1872.5,875.5C 1880.91,872.649 1889.25,869.649 1897.5,866.5C 1899.28,866.569 1901.11,866.903 1903,867.5C 1910.22,864.646 1917.72,862.313 1925.5,860.5C 1926.3,860.043 1926.63,859.376 1926.5,858.5C 1926.83,858.5 1927.17,858.5 1927.5,858.5C 1928.27,859.147 1929.27,859.48 1930.5,859.5C 1940.48,857.27 1950.48,855.103 1960.5,853C 1964.27,852.278 1967.6,850.778 1970.5,848.5C 1977.32,846.403 1984.32,845.07 1991.5,844.5C 1994.06,845.31 1996.56,845.643 1999,845.5C 2013.02,841.889 2027.19,838.722 2041.5,836C 2157.53,815.079 2274.2,800.746 2391.5,793C 2530.36,784.835 2669.03,785.835 2807.5,796C 2897.67,802.272 2987,813.105 3075.5,828.5C 3084.82,830.108 3094.15,831.608 3103.5,833C 3138.65,840.812 3173.99,847.812 3209.5,854C 3213.87,857.29 3218.54,858.123 3223.5,856.5 Z"/></g>
<g><path style="opacity:1" fill="#373334" d="M 1970.5,848.5 C 1967.6,850.778 1964.27,852.278 1960.5,853C 1950.48,855.103 1940.48,857.27 1930.5,859.5C 1929.27,859.48 1928.27,859.147 1927.5,858.5C 1941.72,855.069 1956.05,851.735 1970.5,848.5 Z"/></g>
<g><path style="opacity:1" fill="#373435" d="M 1926.5,858.5 C 1926.63,859.376 1926.3,860.043 1925.5,860.5C 1917.72,862.313 1910.22,864.646 1903,867.5C 1901.11,866.903 1899.28,866.569 1897.5,866.5C 1889.25,869.649 1880.91,872.649 1872.5,875.5C 1870.7,875.098 1869.03,874.431 1867.5,873.5C 1886.91,867.928 1906.57,862.928 1926.5,858.5 Z"/></g>
<g><path style="opacity:1" fill="#333031" d="M 3225.5,856.5 C 3267.94,866.275 3309.94,877.275 3351.5,889.5C 3340.55,888.931 3329.88,886.431 3319.5,882C 3291.66,875.04 3263.66,868.04 3235.5,861C 3231.66,860.131 3228.33,858.631 3225.5,856.5 Z"/></g>
<g><path style="opacity:1" fill="#333132" d="M 3352.5,889.5 C 3380.12,897.566 3407.46,906.233 3434.5,915.5C 3433.5,915.414 3432.67,915.748 3432,916.5C 3405.86,908.421 3379.7,900.254 3353.5,892C 3352.75,891.329 3352.41,890.496 3352.5,889.5 Z"/></g>
<g><path style="opacity:1" fill="#363233" d="M 1836.5,881.5 C 1836.61,882.117 1836.94,882.617 1837.5,883C 1830.91,885.531 1824.24,887.864 1817.5,890C 1804.84,892.792 1792.34,896.292 1780,900.5C 1778.86,900.011 1777.69,899.678 1776.5,899.5C 1796.11,892.591 1816.11,886.591 1836.5,881.5 Z"/></g>
<g><path style="opacity:1" fill="#363334" d="M 3099.5,928.5 C 2851.57,898.687 2603.9,900.687 2356.5,934.5C 2356.39,933.883 2356.06,933.383 2355.5,933C 2461.81,917.472 2568.81,908.472 2676.5,906C 2731.48,905.562 2786.32,905.395 2841,905.5C 2891.15,908.635 2941.32,911.801 2991.5,915C 2999.22,915.923 3006.89,917.09 3014.5,918.5C 3016.11,917.923 3017.77,917.59 3019.5,917.5C 3043.82,920.132 3068.15,922.632 3092.5,925C 3095.4,925.436 3097.73,926.603 3099.5,928.5 Z"/></g>
<g><path style="opacity:1" fill="#343031" d="M 2356.5,934.5 C 2287.22,945.087 2218.22,957.753 2149.5,972.5C 2149.08,971.778 2148.42,971.278 2147.5,971C 2150.91,970.474 2154.24,969.641 2157.5,968.5C 2217.22,955.768 2277.55,944.601 2338.5,935C 2344.56,934.157 2350.56,933.99 2356.5,934.5 Z"/></g>
<g><path style="opacity:1" fill="#383536" d="M 3287.5,958.5 C 3230.61,947.74 3173.61,938.407 3116.5,930.5C 3118.24,929.914 3120.08,929.581 3122,929.5C 3178.66,936.773 3234.83,945.939 3290.5,957C 3289.26,957.232 3288.26,957.732 3287.5,958.5 Z"/></g>
<g><path style="opacity:1" fill="#312e2f" d="M 1676.5,932.5 C 1677.6,933.397 1677.6,934.23 1676.5,935C 1672.31,935.623 1668.64,937.29 1665.5,940C 1666.17,940.333 1666.83,940.667 1667.5,941C 1665.6,941.199 1664.1,942.033 1663,943.5C 1662.61,942.572 1661.95,941.905 1661,941.5C 1659.85,942.424 1658.85,942.424 1658,941.5C 1652.2,944.768 1646.2,946.768 1640,947.5C 1628.98,953.316 1617.48,958.15 1605.5,962C 1604.37,963.016 1604.7,963.683 1606.5,964C 1604.89,965.495 1603.22,965.661 1601.5,964.5C 1593.27,966.969 1585.27,970.135 1577.5,974C 1575.08,975.048 1572.75,975.214 1570.5,974.5C 1605.32,959.433 1640.65,945.433 1676.5,932.5 Z"/></g>
<g><path style="opacity:1" fill="#312e2f" d="M 3444.5,918.5 C 3493.78,934.815 3542.12,953.482 3589.5,974.5C 3587.25,975.214 3584.92,975.048 3582.5,974C 3580.84,973.015 3579.17,971.849 3577.5,970.5C 3576.91,970.709 3576.41,971.043 3576,971.5C 3571.47,969.612 3566.97,967.779 3562.5,966C 3562.83,965.667 3563.17,965.333 3563.5,965C 3560.1,964.02 3556.77,962.854 3553.5,961.5C 3520.57,948.093 3486.24,935.26 3450.5,923C 3448.14,921.758 3446.14,920.258 3444.5,918.5 Z"/></g>
<g><path style="opacity:1" fill="#393536" d="M 3358.5,973.5 C 3335.42,968.352 3312.42,963.352 3289.5,958.5C 3291.06,958.481 3292.56,958.148 3294,957.5C 3312.57,961.103 3331.07,964.936 3349.5,969C 3350.32,970.688 3351.32,970.855 3352.5,969.5C 3354.8,970.432 3357.13,971.265 3359.5,972C 3358.94,972.383 3358.61,972.883 3358.5,973.5 Z"/></g>
<g><path style="opacity:1" fill="#3a3738" d="M 3461.5,999.5 C 3427.46,990.589 3393.46,981.923 3359.5,973.5C 3361.2,973.38 3362.87,973.046 3364.5,972.5C 3380.99,975.941 3397.33,980.107 3413.5,985C 3429.35,988.213 3445.02,992.213 3460.5,997C 3461.25,997.671 3461.59,998.504 3461.5,999.5 Z"/></g>
<g><path style="opacity:1" fill="#333031" d="M 2148.5,972.5 C 2077.8,989.284 2007.8,1008.95 1938.5,1031.5C 1938.39,1030.88 1938.06,1030.38 1937.5,1030C 1938.67,1029.58 1939.67,1028.91 1940.5,1028C 1951.55,1024.92 1962.21,1021.59 1972.5,1018C 2011.22,1006.07 2049.89,995.234 2088.5,985.5C 2106.88,980.905 2125.55,976.238 2144.5,971.5C 2145.74,972.246 2147.07,972.579 2148.5,972.5 Z"/></g>
<g><path style="opacity:1" fill="#312f30" d="M 3598.5,977.5 C 3615.69,985.261 3632.69,993.261 3649.5,1001.5C 3648.19,1002.2 3646.69,1002.2 3645,1001.5C 3630.36,994.768 3615.19,987.768 3599.5,980.5C 3598.87,979.583 3598.54,978.583 3598.5,977.5 Z"/></g>
<g><path style="opacity:1" fill="#312e2f" d="M 1561.5,978.5 C 1561.61,979.117 1561.94,979.617 1562.5,980C 1557.9,984.149 1552.56,986.815 1546.5,988C 1547.5,988.333 1548.5,988.667 1549.5,989C 1547.48,989.424 1545.65,990.258 1544,991.5C 1542.99,991.108 1542.49,990.441 1542.5,989.5C 1533.83,993.5 1525.17,997.5 1516.5,1001.5C 1515.58,1000.87 1514.58,1000.54 1513.5,1000.5C 1529.19,992.656 1545.19,985.323 1561.5,978.5 Z"/></g>
<g><path style="opacity:1" fill="#3b3839" d="M 3462.5,999.5 C 3466.83,998.372 3470.83,999.372 3474.5,1002.5C 3475.45,1002.01 3476.45,1001.68 3477.5,1001.5C 3486.23,1004.73 3495.23,1007.23 3504.5,1009C 3508.86,1010.17 3512.52,1012.34 3515.5,1015.5C 3497.82,1010.16 3480.15,1004.83 3462.5,999.5 Z"/></g>
<g><path style="opacity:1" fill="#363334" d="M 1496.5,1008.5 C 1495.97,1009.72 1495.31,1010.89 1494.5,1012C 1490.67,1013.55 1487,1015.39 1483.5,1017.5C 1482.91,1017.29 1482.41,1016.96 1482,1016.5C 1481.01,1018.16 1479.67,1019.49 1478,1020.5C 1474.9,1022.39 1471.74,1023.05 1468.5,1022.5C 1477.52,1017.33 1486.85,1012.66 1496.5,1008.5 Z"/></g>
<g><path style="opacity:1" fill="#333132" d="M 3548.5,1025.5 C 3537.95,1022.54 3527.61,1019.2 3517.5,1015.5C 3518.26,1015.08 3519.1,1014.74 3520,1014.5C 3530.15,1016.83 3539.98,1019.99 3549.5,1024C 3548.94,1024.38 3548.61,1024.88 3548.5,1025.5 Z"/></g>
<g><path style="opacity:1" fill="#313030" d="M 1937.5,1031.5 C 1927.31,1035.34 1916.98,1039.01 1906.5,1042.5C 1905.4,1041.6 1905.4,1040.77 1906.5,1040C 1915.8,1036.77 1925.13,1033.61 1934.5,1030.5C 1935.58,1030.69 1936.58,1031.02 1937.5,1031.5 Z"/></g>
<g><path style="opacity:1" fill="#383637" d="M 3596.5,1041.5 C 3585.62,1038.21 3574.95,1034.54 3564.5,1030.5C 3565.5,1030.59 3566.33,1030.25 3567,1029.5C 3577.26,1032.81 3587.42,1036.31 3597.5,1040C 3596.94,1040.38 3596.61,1040.88 3596.5,1041.5 Z"/></g>
<g><path style="opacity:1" fill="#333132" d="M 1449.5,1032.5 C 1449.44,1034.59 1448.44,1036.09 1446.5,1037C 1438.52,1040.43 1430.85,1044.43 1423.5,1049C 1421.7,1050.04 1420.03,1050.2 1418.5,1049.5C 1428.34,1043.08 1438.68,1037.41 1449.5,1032.5 Z"/></g>
<g><path style="opacity:1" fill="#323031" d="M 1905.5,1042.5 C 1895.46,1046.74 1885.12,1050.4 1874.5,1053.5C 1874.58,1052.25 1875.24,1051.42 1876.5,1051C 1883.15,1049.18 1889.49,1046.51 1895.5,1043C 1894.5,1042.67 1893.5,1042.33 1892.5,1042C 1894.17,1041.33 1895.83,1041.33 1897.5,1042C 1896.3,1042.65 1896.3,1043.15 1897.5,1043.5C 1900.28,1042.33 1902.95,1041.99 1905.5,1042.5 Z"/></g>
<g><path style="opacity:1" fill="#313030" d="M 3733.5,1044.5 C 3742.76,1049.11 3751.76,1054.11 3760.5,1059.5C 3759.85,1059.8 3759.18,1060.14 3758.5,1060.5C 3750.66,1055.75 3742.66,1051.25 3734.5,1047C 3733.75,1046.33 3733.41,1045.5 3733.5,1044.5 Z"/></g>
<g><path style="opacity:1" fill="#343031" d="M 1874.5,1053.5 C 1855.24,1061.15 1835.91,1068.81 1816.5,1076.5C 1816.51,1074.98 1817.18,1073.82 1818.5,1073C 1836.31,1066.17 1854.14,1059.34 1872,1052.5C 1872.67,1053.25 1873.5,1053.59 1874.5,1053.5 Z"/></g>
<g><path style="opacity:1" fill="#323031" d="M 1409.5,1054.5 C 1408.53,1056.19 1407.19,1057.69 1405.5,1059C 1400.46,1061.51 1395.79,1064.51 1391.5,1068C 1389.45,1069.24 1387.45,1069.41 1385.5,1068.5C 1393.16,1063.33 1401.16,1058.67 1409.5,1054.5 Z"/></g>
<g><path style="opacity:1" fill="#333031" d="M 3698.5,1080.5 C 3683.68,1074.68 3669.01,1068.68 3654.5,1062.5C 3654.56,1061.96 3654.89,1061.62 3655.5,1061.5C 3662.06,1063.29 3668.06,1065.45 3673.5,1068C 3680.13,1070.31 3686.79,1072.64 3693.5,1075C 3693.17,1075.33 3692.83,1075.67 3692.5,1076C 3694.44,1076.81 3696.44,1077.31 3698.5,1077.5C 3698.5,1078.5 3698.5,1079.5 3698.5,1080.5 Z"/></g>
<g><path style="opacity:1" fill="#323131" d="M 1385.5,1068.5 C 1384.29,1071.3 1382.29,1073.46 1379.5,1075C 1374.16,1078 1368.82,1081 1363.5,1084C 1361.56,1084.81 1359.56,1085.31 1357.5,1085.5C 1366.49,1079.33 1375.83,1073.67 1385.5,1068.5 Z"/></g>
<g><path style="opacity:1" fill="#363435" d="M 3729.5,1093.5 C 3719.26,1089.54 3709.26,1085.2 3699.5,1080.5C 3700.6,1079.4 3701.93,1079.24 3703.5,1080C 3712.24,1084.16 3721.24,1087.83 3730.5,1091C 3728.38,1091.34 3728.05,1092.18 3729.5,1093.5 Z"/></g>
<g><path style="opacity:1" fill="#333132" d="M 1801.5,1082.5 C 1766.36,1097.4 1731.69,1113.4 1697.5,1130.5C 1697.39,1129.88 1697.06,1129.38 1696.5,1129C 1699.18,1126.14 1702.18,1124.64 1705.5,1124.5C 1727.28,1112.95 1749.61,1102.45 1772.5,1093C 1772.17,1092.67 1771.83,1092.33 1771.5,1092C 1778.03,1090.13 1784.36,1087.79 1790.5,1085C 1793.48,1081.45 1797.14,1080.62 1801.5,1082.5 Z"/></g>
<g><path style="opacity:1" fill="#727272" d="M 2879.5,1107.5 C 2941.67,1106.17 3004,1106.17 3066.5,1107.5C 3066.38,1108.11 3066.04,1108.44 3065.5,1108.5C 3003.67,1107.5 2941.67,1107.17 2879.5,1107.5 Z"/></g>
<g><path style="opacity:1" fill="#1a1a1a" d="M 2119.5,1107.5 C 2246.17,1256.84 2372.84,1406.18 2499.5,1555.5C 2626.16,1406.18 2752.83,1256.84 2879.5,1107.5C 2941.67,1107.17 3003.67,1107.5 3065.5,1108.5C 2875.83,1337.67 2686.33,1567 2497,1796.5C 2364.64,1639.98 2232.14,1483.64 2099.5,1327.5C 2098.73,1328.17 2098.07,1329.01 2097.5,1330C 2098.5,1624.1 2098.83,1918.26 2098.5,2212.5C 2041.17,2212.5 1983.83,2212.5 1926.5,2212.5C 1926.5,1844.17 1926.5,1475.83 1926.5,1107.5C 1990.83,1107.5 2055.17,1107.5 2119.5,1107.5 Z"/></g>
<g><path style="opacity:1" fill="#343233" d="M 3820.5,1096.5 C 3830.78,1102.78 3840.78,1109.45 3850.5,1116.5C 3848.19,1117.04 3845.86,1116.54 3843.5,1115C 3839.83,1112 3836.17,1109 3832.5,1106C 3827.02,1104.46 3823.02,1101.29 3820.5,1096.5 Z"/></g>
<g><path style="opacity:1" fill="#858585" d="M 2119.5,1107.5 C 2055.17,1107.5 1990.83,1107.5 1926.5,1107.5C 1926.5,1475.83 1926.5,1844.17 1926.5,2212.5C 1925.5,1844 1925.17,1475.33 1925.5,1106.5C 1990.34,1106.17 2055,1106.5 2119.5,1107.5 Z"/></g>
<g><path style="opacity:1" fill="#363435" d="M 3800.5,1126.5 C 3776.85,1115.17 3753.19,1104.17 3729.5,1093.5C 3734.5,1093.23 3739,1094.89 3743,1098.5C 3743.41,1098.04 3743.91,1097.71 3744.5,1097.5C 3747.71,1100.1 3751.37,1101.6 3755.5,1102C 3760,1104.42 3764.33,1107.08 3768.5,1110C 3778.89,1114.07 3789.22,1118.24 3799.5,1122.5C 3799.43,1123.96 3799.77,1125.29 3800.5,1126.5 Z"/></g>
<g><path style="opacity:1" fill="#363334" d="M 3850.5,1116.5 C 3860.89,1123.36 3870.89,1130.69 3880.5,1138.5C 3879.43,1139.66 3878.26,1139.66 3877,1138.5C 3873.27,1134.94 3869.1,1131.94 3864.5,1129.5C 3860.85,1126.01 3856.85,1123.01 3852.5,1120.5C 3851.15,1119.48 3850.48,1118.14 3850.5,1116.5 Z"/></g>
<g><path style="opacity:1" fill="#343132" d="M 3881.5,1169.5 C 3854.75,1154.76 3827.75,1140.42 3800.5,1126.5C 3801.58,1126.46 3802.58,1126.13 3803.5,1125.5C 3808,1127.95 3812.67,1130.12 3817.5,1132C 3821.05,1134.94 3825.05,1137.11 3829.5,1138.5C 3836.33,1143.09 3844,1147.09 3852.5,1150.5C 3853.28,1152.54 3854.44,1153.21 3856,1152.5C 3861.87,1157.02 3868.37,1160.35 3875.5,1162.5C 3877.56,1164.88 3879.56,1167.22 3881.5,1169.5 Z"/></g>
<g><path style="opacity:1" fill="#323131" d="M 1676.5,1140.5 C 1665.69,1146.74 1654.69,1152.74 1643.5,1158.5C 1643.41,1157.5 1643.75,1156.67 1644.5,1156C 1654.04,1150.4 1663.7,1145.07 1673.5,1140C 1674.75,1139.26 1675.75,1139.43 1676.5,1140.5 Z"/></g>
<g><path style="opacity:1" fill="#353535" d="M 3885.5,1141.5 C 3893.54,1147.84 3901.54,1154.18 3909.5,1160.5C 3908.88,1160.61 3908.38,1160.94 3908,1161.5C 3902.5,1157.33 3897,1153.17 3891.5,1149C 3888.88,1146.89 3886.88,1144.39 3885.5,1141.5 Z"/></g>
<g><path style="opacity:1" fill="#333132" d="M 1272.5,1144.5 C 1272.67,1145.82 1272.34,1146.99 1271.5,1148C 1265.5,1152.33 1259.5,1156.67 1253.5,1161C 1247.02,1165.98 1241.02,1171.48 1235.5,1177.5C 1233.17,1178.82 1230.84,1180.16 1228.5,1181.5C 1224.63,1186.06 1219.96,1189.39 1214.5,1191.5C 1233.06,1174.89 1252.39,1159.22 1272.5,1144.5 Z"/></g>
<g><path style="opacity:1" fill="#363434" d="M 3902.5,1181.5 C 3904.2,1181.34 3905.87,1181.51 3907.5,1182C 3926.64,1194.07 3945.64,1206.41 3964.5,1219C 3969.82,1219.98 3973.99,1223.15 3977,1228.5C 3977.72,1227.55 3978.55,1227.38 3979.5,1228C 3981.09,1230.13 3983.09,1231.8 3985.5,1233C 3987.37,1233.95 3987.71,1235.12 3986.5,1236.5C 3958.81,1217.66 3930.81,1199.32 3902.5,1181.5 Z"/></g>
<g><path style="opacity:1" fill="#333131" d="M 3920.5,1169.5 C 3945.1,1189.1 3968.44,1210.1 3990.5,1232.5C 3989.88,1232.61 3989.38,1232.94 3989,1233.5C 3969.33,1214.83 3949.33,1196.49 3929,1178.5C 3927.93,1179.28 3926.76,1179.11 3925.5,1178C 3924.23,1175.06 3922.23,1172.73 3919.5,1171C 3920.06,1170.62 3920.39,1170.12 3920.5,1169.5 Z"/></g>
<g><path style="opacity:1" fill="#333132" d="M 1616.5,1173.5 C 1605.1,1180.89 1593.43,1187.89 1581.5,1194.5C 1582.71,1191.7 1584.71,1189.54 1587.5,1188C 1595.67,1184.4 1603.34,1180.07 1610.5,1175C 1612.52,1174.5 1614.52,1174 1616.5,1173.5 Z"/></g>
<g><path style="opacity:1" fill="#333232" d="M 1214.5,1191.5 C 1213.83,1192.85 1213.83,1194.01 1214.5,1195C 1205.54,1201.55 1197.21,1208.88 1189.5,1217C 1188.26,1217.79 1186.92,1218.29 1185.5,1218.5C 1194.84,1209.16 1204.51,1200.16 1214.5,1191.5 Z"/></g>
<g><path style="opacity:1" fill="#323031" d="M 1581.5,1194.5 C 1572.13,1201.19 1562.46,1207.53 1552.5,1213.5C 1552.42,1212.07 1552.75,1210.74 1553.5,1209.5C 1556.79,1207.57 1560.12,1205.74 1563.5,1204C 1563.17,1203.67 1562.83,1203.33 1562.5,1203C 1568.09,1201.3 1572.92,1198.46 1577,1194.5C 1578.3,1194.97 1579.8,1194.97 1581.5,1194.5 Z"/></g>
<g><path style="opacity:1" fill="#363334" d="M 1535.5,1224.5 C 1521.78,1234.88 1507.78,1244.88 1493.5,1254.5C 1492.4,1253.6 1492.4,1252.77 1493.5,1252C 1500.56,1246.61 1507.89,1241.61 1515.5,1237C 1518.57,1234.05 1521.74,1231.22 1525,1228.5C 1525.41,1228.96 1525.91,1229.29 1526.5,1229.5C 1528.86,1226.9 1531.69,1224.9 1535,1223.5C 1535.4,1223.73 1535.57,1224.06 1535.5,1224.5 Z"/></g>
<g><path style="opacity:1" fill="#1a1a1a" d="M 3067.5,1235.5 C 3068.5,1561 3068.83,1886.67 3068.5,2212.5C 3010.83,2212.5 2953.17,2212.5 2895.5,2212.5C 2895.67,2036.17 2895.5,1859.83 2895,1683.5C 2761.57,1845.35 2627.91,2007.02 2494,2168.5C 2386,2043.17 2278,1917.83 2170,1792.5C 2169.33,1710.17 2169.33,1627.83 2170,1545.5C 2278.65,1672.98 2387.48,1800.31 2496.5,1927.5C 2687.58,1697.42 2877.91,1466.75 3067.5,1235.5 Z"/></g>
<g><path style="opacity:1" fill="#3c3c3b" d="M 3990.5,1232.5 C 3997.27,1239.11 4003.94,1245.94 4010.5,1253C 4009.83,1253.67 4009.17,1253.67 4008.5,1253C 4001.43,1247.48 3994.43,1241.98 3987.5,1236.5C 3988.12,1236.39 3988.62,1236.06 3989,1235.5C 3989.61,1238.03 3991.11,1238.87 3993.5,1238C 3991.39,1236.74 3990.39,1234.9 3990.5,1232.5 Z"/></g>
<g><path style="opacity:1" fill="#303030" d="M 1152.5,1251.5 C 1152.66,1252.87 1152.49,1254.21 1152,1255.5C 1148.17,1260.19 1144.01,1264.69 1139.5,1269C 1140.34,1270.67 1139.84,1270.83 1138,1269.5C 1137.53,1271.77 1136.53,1273.77 1135,1275.5C 1132.56,1278.12 1129.72,1280.12 1126.5,1281.5C 1134.8,1271.2 1143.47,1261.2 1152.5,1251.5 Z"/></g>
<g><path style="opacity:1" fill="#363435" d="M 1493.5,1254.5 C 1473.69,1270.25 1454.02,1286.25 1434.5,1302.5C 1433.83,1301.15 1433.83,1299.99 1434.5,1299C 1444.09,1292.08 1453.09,1284.42 1461.5,1276C 1464.27,1274.84 1466.93,1273.67 1469.5,1272.5C 1469.81,1269.65 1471.48,1268.15 1474.5,1268C 1477.94,1264.44 1481.6,1261.11 1485.5,1258C 1487.82,1256.01 1490.48,1254.84 1493.5,1254.5 Z"/></g>
<g><path style="opacity:1" fill="#353233" d="M 1113.5,1297.5 C 1114.3,1298.42 1114.47,1299.42 1114,1300.5C 1109.47,1305.63 1105.47,1310.97 1102,1316.5C 1098.6,1318.77 1096.1,1321.77 1094.5,1325.5C 1093.82,1325.14 1093.15,1324.8 1092.5,1324.5C 1099.15,1315.19 1106.15,1306.19 1113.5,1297.5 Z"/></g>
<g><path style="opacity:1" fill="#373435" d="M 1434.5,1302.5 C 1426.02,1309.92 1417.68,1317.59 1409.5,1325.5C 1408.7,1324.58 1408.53,1323.58 1409,1322.5C 1416.63,1315.97 1424.46,1308.97 1432.5,1301.5C 1433.18,1301.86 1433.85,1302.2 1434.5,1302.5 Z"/></g>
<g><path style="opacity:1" fill="#373536" d="M 1405.5,1328.5 C 1398.83,1335.83 1391.83,1342.83 1384.5,1349.5C 1384.39,1348.88 1384.06,1348.38 1383.5,1348C 1390.29,1341.37 1396.96,1334.54 1403.5,1327.5C 1404.18,1327.86 1404.85,1328.2 1405.5,1328.5 Z"/></g>
<g><path style="opacity:1" fill="#383838" d="M 2099.5,1327.5 C 2099.83,1622.67 2099.5,1917.67 2098.5,2212.5C 2098.83,1918.26 2098.5,1624.1 2097.5,1330C 2098.07,1329.01 2098.73,1328.17 2099.5,1327.5 Z"/></g>
<g><path style="opacity:1" fill="#343233" d="M 1083.5,1338.5 C 1082.97,1341.24 1082.14,1343.9 1081,1346.5C 1077.52,1351.97 1073.69,1357.14 1069.5,1362C 1063.34,1374.82 1056.5,1387.32 1049,1399.5C 1048.62,1398.94 1048.12,1398.61 1047.5,1398.5C 1058.01,1377.47 1070.01,1357.47 1083.5,1338.5 Z"/></g>
<g><path style="opacity:1" fill="#353334" d="M 1047.5,1399.5 C 1046.98,1405.51 1044.82,1410.85 1041,1415.5C 1037.45,1425.37 1033.45,1435.03 1029,1444.5C 1028.72,1443.58 1028.22,1442.92 1027.5,1442.5C 1033.38,1427.74 1040.05,1413.4 1047.5,1399.5 Z"/></g>
<g><path style="opacity:1" fill="#333132" d="M 1384.5,1349.5 C 1343.18,1391.55 1307.18,1437.55 1276.5,1487.5C 1275.96,1487.44 1275.62,1487.11 1275.5,1486.5C 1280.83,1477.28 1286.83,1467.94 1293.5,1458.5C 1300.01,1447.8 1307.18,1437.47 1315,1427.5C 1315.62,1426.55 1315.45,1425.72 1314.5,1425C 1318.5,1421.81 1321.67,1417.98 1324,1413.5C 1326.94,1411.6 1329.44,1409.27 1331.5,1406.5C 1342.92,1391.55 1354.25,1377.88 1365.5,1365.5C 1366.55,1365.65 1367.55,1365.48 1368.5,1365C 1367.55,1364.28 1367.38,1363.45 1368,1362.5C 1372.3,1358.61 1376.47,1354.61 1380.5,1350.5C 1381.69,1349.57 1383.02,1349.24 1384.5,1349.5 Z"/></g>
<g><path style="opacity:1" fill="#3a3537" d="M 1027.5,1443.5 C 1027.66,1445.53 1027.5,1447.53 1027,1449.5C 1023,1461.5 1019,1473.5 1015,1485.5C 1014.58,1487.43 1013.41,1488.43 1011.5,1488.5C 1016.03,1473.13 1021.36,1458.13 1027.5,1443.5 Z"/></g>
<g><path style="opacity:1" fill="#333132" d="M 1264.5,1509.5 C 1259.4,1520.69 1254.07,1531.69 1248.5,1542.5C 1247.74,1539.58 1248.57,1536.91 1251,1534.5C 1252.98,1526.56 1256.48,1519.4 1261.5,1513C 1261.17,1512.67 1260.83,1512.33 1260.5,1512C 1261.74,1510.92 1263.07,1510.08 1264.5,1509.5 Z"/></g>
<g><path style="opacity:1" fill="#333031" d="M 1248.5,1543.5 C 1242.24,1557.35 1236.57,1571.35 1231.5,1585.5C 1231.08,1584.74 1230.74,1583.9 1230.5,1583C 1235.29,1569.34 1240.29,1556.17 1245.5,1543.5C 1246.5,1543.5 1247.5,1543.5 1248.5,1543.5 Z"/></g>
<g><path style="opacity:1" fill="#343132" d="M 1231.5,1586.5 C 1224.77,1607.33 1219.1,1628.33 1214.5,1649.5C 1215.76,1631.97 1219.59,1614.97 1226,1598.5C 1226.33,1594.83 1226.67,1591.17 1227,1587.5C 1227.33,1588.17 1227.67,1588.83 1228,1589.5C 1228.67,1588.17 1229.33,1586.83 1230,1585.5C 1230.38,1586.06 1230.88,1586.39 1231.5,1586.5 Z"/></g>
<g><path style="opacity:1" fill="#343132" d="M 1008.5,1501.5 C 1008.67,1504.85 1008.5,1508.18 1008,1511.5C 988.321,1600.17 994.488,1686.84 1026.5,1771.5C 1025.87,1772.42 1025.54,1773.42 1025.5,1774.5C 994.099,1693.14 986.599,1609.47 1003,1523.5C 1004.41,1515.93 1006.24,1508.6 1008.5,1501.5 Z"/></g>
<g><path style="opacity:1" fill="#343132" d="M 1214.5,1650.5 C 1200.47,1727.77 1205.47,1803.77 1229.5,1878.5C 1228.78,1878.92 1228.28,1879.58 1228,1880.5C 1202.83,1804.48 1197.83,1727.14 1213,1648.5C 1213.28,1649.42 1213.78,1650.08 1214.5,1650.5 Z"/></g>
<g><path style="opacity:1" fill="#332f30" d="M 1028.5,1782.5 C 1030.62,1783.03 1032.12,1784.36 1033,1786.5C 1036.2,1795.73 1040.03,1804.73 1044.5,1813.5C 1044.14,1814.18 1043.8,1814.85 1043.5,1815.5C 1037.72,1804.93 1032.72,1793.93 1028.5,1782.5 Z"/></g>
<g><path style="opacity:1" fill="#343233" d="M 1043.5,1815.5 C 1044.64,1815.91 1045.64,1816.57 1046.5,1817.5C 1050.39,1826 1054.55,1834.34 1059,1842.5C 1059.67,1843.83 1060.33,1843.83 1061,1842.5C 1060.4,1846 1061.56,1849 1064.5,1851.5C 1064.14,1852.18 1063.8,1852.85 1063.5,1853.5C 1055.78,1841.4 1049.12,1828.73 1043.5,1815.5 Z"/></g>
<g><path style="opacity:1" fill="#353334" d="M 1242.5,1915.5 C 1249.85,1930.86 1257.18,1946.19 1264.5,1961.5C 1263.32,1961.72 1262.32,1961.39 1261.5,1960.5C 1254.03,1946.57 1247.37,1932.23 1241.5,1917.5C 1241.54,1916.58 1241.88,1915.92 1242.5,1915.5 Z"/></g>
<g><path style="opacity:1" fill="#333132" d="M 1063.5,1854.5 C 1065.61,1854.72 1067.27,1855.72 1068.5,1857.5C 1070.79,1862.29 1073.29,1866.96 1076,1871.5C 1080.95,1878.46 1085.95,1885.46 1091,1892.5C 1091.33,1892.17 1091.67,1891.83 1092,1891.5C 1092.36,1894.54 1093.03,1894.88 1094,1892.5C 1094.53,1895.27 1095.36,1897.94 1096.5,1900.5C 1101.85,1907.84 1107.19,1915.17 1112.5,1922.5C 1120.46,1930.44 1127.46,1939.11 1133.5,1948.5C 1134.73,1950.32 1136.39,1951.32 1138.5,1951.5C 1139.95,1955.47 1142.45,1958.81 1146,1961.5C 1146.33,1961.17 1146.67,1960.83 1147,1960.5C 1150.03,1964.21 1152.69,1968.21 1155,1972.5C 1159.17,1975.33 1162.67,1978.83 1165.5,1983C 1164.94,1983.38 1164.61,1983.88 1164.5,1984.5C 1125.51,1945.19 1091.85,1901.86 1063.5,1854.5 Z"/></g>
<g><path style="opacity:1" fill="#353233" d="M 1199.5,2018.5 C 1200.55,2018.35 1201.55,2018.52 1202.5,2019C 1215.17,2029.67 1227.83,2040.33 1240.5,2051C 1240.83,2052 1241.17,2053 1241.5,2054C 1245.01,2054.15 1246.35,2055.65 1245.5,2058.5C 1229.75,2045.63 1214.42,2032.3 1199.5,2018.5 Z"/></g>
<g><path style="opacity:1" fill="#343233" d="M 1307.5,2031.5 C 1316.16,2042.79 1324.82,2054.13 1333.5,2065.5C 1332.42,2065.46 1331.42,2065.13 1330.5,2064.5C 1323.01,2054.87 1315.51,2045.21 1308,2035.5C 1306.67,2034.12 1306.5,2032.79 1307.5,2031.5 Z"/></g>
<g><path style="opacity:1" fill="#363535" d="M 1266.5,2074.5 C 1267.93,2074.42 1269.26,2074.75 1270.5,2075.5C 1274.97,2078.87 1279.63,2082.03 1284.5,2085C 1287.62,2088.72 1291.28,2091.72 1295.5,2094C 1297.46,2095.45 1298.8,2097.28 1299.5,2099.5C 1288.19,2091.52 1277.19,2083.19 1266.5,2074.5 Z"/></g>
<g><path style="opacity:1" fill="#373536" d="M 1325.5,2117.5 C 1316.6,2112.22 1308.27,2106.22 1300.5,2099.5C 1301.25,2098.43 1302.25,2098.26 1303.5,2099C 1310.94,2104.92 1318.61,2110.42 1326.5,2115.5C 1326.14,2116.18 1325.8,2116.85 1325.5,2117.5 Z"/></g>
<g><path style="opacity:1" fill="#373636" d="M 1326.5,2117.5 C 1328.59,2117.86 1330.59,2118.52 1332.5,2119.5C 1339.26,2124.41 1346.43,2128.75 1354,2132.5C 1361.16,2138.33 1368.82,2143.33 1377,2147.5C 1377.48,2148.45 1377.65,2149.45 1377.5,2150.5C 1359.95,2140.23 1342.95,2129.23 1326.5,2117.5 Z"/></g>
<g><path style="opacity:1" fill="#292727" d="M 1365.5,2102.5 C 1401.13,2139.63 1439.13,2174.13 1479.5,2206C 1459.61,2196.88 1439.94,2186.88 1420.5,2176C 1408.1,2168.47 1395.77,2160.97 1383.5,2153.5C 1393.72,2157.61 1403.38,2162.78 1412.5,2169C 1415.09,2170.31 1417.76,2170.98 1420.5,2171C 1421.01,2168.31 1422.17,2166.81 1424,2166.5C 1424.67,2165.5 1424.67,2164.5 1424,2163.5C 1421.36,2162.06 1419.52,2159.9 1418.5,2157C 1416.42,2156.22 1414.58,2155.06 1413,2153.5C 1410.54,2150.57 1408.37,2147.57 1406.5,2144.5C 1403.91,2143.09 1401.41,2141.43 1399,2139.5C 1398.67,2139.83 1398.33,2140.17 1398,2140.5C 1391.69,2132.22 1384.69,2124.56 1377,2117.5C 1376.33,2116.17 1375.67,2114.83 1375,2113.5C 1370.25,2111.25 1367.08,2107.58 1365.5,2102.5 Z"/></g>
</svg>
