<svg width="3015" height="1427" viewBox="0 0 3015 1427" fill="none" xmlns="http://www.w3.org/2000/svg">
<rect width="3015" height="1427" fill="#1E1E1E"/>
<path fill-rule="evenodd" clip-rule="evenodd" d="M1506.31 0.485175C1150.14 10.5952 821.296 78.8672 554.313 198.13C536.338 206.159 529.815 209.203 499.75 223.593C460.948 242.163 407.935 271.557 365.313 298.134C258.911 364.479 169.879 442.985 108.803 524.318C47.1934 606.361 12.9784 687.785 2.28341 777.818C0.0794072 796.364 -0.714592 836.519 0.729408 856.318C5.22141 917.888 20.5764 972.967 49.7964 1032.32C80.8704 1095.44 121.279 1150.43 178.765 1207.84C255.766 1284.73 351.399 1352.21 471.313 1414.25C479.563 1418.52 485.638 1421.34 484.813 1420.51C483.988 1419.69 475.582 1412.76 466.133 1405.11C394.321 1346.98 334.146 1280.96 292.521 1214.62C228.944 1113.3 202.588 1006.33 214.852 899.375C229.741 769.52 299.574 646.003 421.813 533.312C578.764 388.619 819.742 270.625 1102.81 199.861C1278.87 155.848 1447.67 132.433 1652.31 123.634C1690.29 122.001 1824.97 122.001 1863.81 123.634C2067.3 132.187 2246.06 157.202 2419.81 201.44C2656.38 261.671 2857.1 351.32 3013.81 466.74C3020.02 471.313 2995.87 446.269 2976.81 428.372C2894.83 351.384 2797.85 285.897 2678.31 226.818C2428.74 103.467 2114.87 26.4982 1775.31 5.38317C1708.16 1.20617 1656.05 -0.216825 1579.31 0.0261751C1544.11 0.138175 1511.26 0.344175 1506.31 0.485175ZM931.811 321.068C931.81 321.205 931.697 570.056 931.561 874.068L931.313 1426.82H1018.06H1104.81L1105.06 984.461L1105.31 542.105L1154.31 600.055C1181.26 631.928 1209.16 664.874 1216.31 673.27C1223.46 681.665 1248.5 711.21 1271.94 738.926C1295.39 766.642 1320.14 795.89 1326.94 803.923C1333.75 811.955 1348.59 829.505 1359.93 842.923C1371.27 856.34 1391.07 879.74 1403.93 894.922C1416.79 910.103 1444.17 942.437 1464.77 966.774L1502.23 1011.02L1504.1 1008.67C1505.13 1007.38 1516.02 994.168 1528.3 979.318C1540.57 964.468 1563.08 937.243 1578.31 918.818C1593.54 900.393 1612.82 877.047 1621.16 866.937C1629.49 856.827 1640.85 843.102 1646.39 836.437C1651.94 829.772 1677.12 799.343 1702.35 768.818C1781.15 673.494 1814.55 633.098 1833.81 609.818C1844.05 597.443 1863.41 574.043 1876.82 557.818C1890.24 541.593 1909.6 518.193 1919.84 505.818C1930.08 493.443 1948.33 471.353 1960.39 456.73C1972.45 442.107 2002.45 405.795 2027.06 376.038C2051.68 346.28 2071.81 321.682 2071.81 321.375C2071.81 321.069 2029.98 320.818 1978.85 320.818H1885.88L1874.55 334.068C1868.32 341.356 1855.82 356.061 1846.77 366.747C1837.72 377.434 1819.98 398.359 1807.35 413.247C1738.62 494.292 1714.43 522.825 1676.74 567.318C1653.91 594.268 1620.16 634.093 1601.73 655.818C1583.31 677.543 1554.12 711.968 1536.86 732.318C1519.61 752.668 1505.17 769.318 1504.78 769.318C1504.39 769.318 1493.77 757.16 1481.19 742.301C1468.61 727.441 1435.81 688.776 1408.31 656.378C1380.81 623.98 1355.39 593.999 1351.81 589.753C1348.24 585.507 1342.12 578.273 1338.21 573.676C1320.4 552.702 1206.37 418.109 1163.39 367.318C1144.77 345.318 1128.16 325.856 1126.48 324.068L1123.42 320.818H1027.62C974.925 320.818 931.812 320.931 931.811 321.068ZM2033.16 498.579C2011.08 525.386 1975.57 568.468 1954.25 594.318C1932.92 620.168 1912.74 644.653 1909.4 648.729C1902.8 656.77 1881.52 682.538 1859.31 709.391C1842.8 729.357 1785.17 799.227 1727.4 869.318C1688.65 916.34 1630 987.461 1584.43 1042.7C1573.36 1056.11 1557.55 1075.23 1549.28 1085.2C1541.01 1095.16 1527.13 1111.98 1518.44 1122.57C1509.75 1133.16 1502.34 1141.79 1501.97 1141.76C1501.61 1141.72 1498.77 1138.69 1495.67 1135.01C1488.95 1127.05 1440.93 1070.76 1397.4 1019.82C1380.25 999.743 1346.24 959.918 1321.83 931.318C1297.41 902.718 1271.08 871.893 1263.32 862.818C1223.87 816.707 1183.83 769.796 1180.37 765.615C1178.22 763.029 1176.1 761.139 1175.66 761.415C1175.21 761.691 1174.83 816.745 1174.82 883.757L1174.8 1005.6L1197.56 1032.04C1266.2 1111.81 1294.35 1144.55 1357.3 1217.82C1379.27 1243.39 1407.12 1275.79 1419.19 1289.82C1431.26 1303.84 1454.17 1330.5 1470.1 1349.05C1486.03 1367.6 1499.42 1382.56 1499.87 1382.28C1500.58 1381.84 1537.07 1337.96 1551.81 1319.81C1556.47 1314.08 1641.22 1211.46 1689.73 1152.82C1697.7 1143.19 1706.93 1132 1710.26 1127.95C1713.59 1123.89 1719.92 1116.24 1724.34 1110.95C1728.75 1105.65 1754.82 1074.09 1782.28 1040.82C1829.57 983.503 1849.74 959.081 1861.25 945.216C1864.03 941.861 1873.96 929.859 1883.31 918.546L1900.31 897.978L1900.57 1162.4L1900.82 1426.82H1987.32H2073.81V938.318C2073.81 669.643 2073.7 449.823 2073.56 449.829C2073.43 449.835 2055.25 471.773 2033.16 498.579Z" fill="white"/>
</svg>
